<svg id="Layer_1" data-name="Layer 1" xmlns="http://www.w3.org/2000/svg" viewBox="0 0 226.16 287.01"><defs><style>.cls-1{fill:#ccef3a;}.cls-2{fill:#609af4;}.cls-3{fill:#54efa5;}.cls-4{fill:#1fd6e0;}</style></defs><path class="cls-1" d="M165.51,99.07q-15.16.54-29.92.43c-8.94-.07-14.27-2.48-17.29-10.88l-.09-48.24c0-5.56,1.35-17-1.16-21.9q-6-11.67-21.34-2.69,5.07-7.6,7.53-9.39C120.34-6.12,143.66.27,150,20.86q1.29,4.2,1.31,12.48,0,21.13,0,42.29C151.36,87.77,153.83,94.9,165.51,99.07Z"/><path class="cls-2" d="M118.21,40.38Q77.47,92.33,37.15,144.18c-5,6.4-.33,10.56,6.49,10.61q14.55.09,29.12,0c18.43-.14,31.84,9.17,34.71,28,.76,4.93.29,11.28.36,16.86-2.77-8.87-7.81-11.82-17.09-11.86q-14.4-.11-29.34.44c-11.38-.91-23.55.84-34.07-2.25C8.2,180.36-3.38,161.86.88,142.33,3,132.56,7.26,128,15,118.19Q55.44,66.63,95.71,15.79q15.36-9,21.34,2.69C119.56,23.36,118.23,34.82,118.21,40.38Z"/><path class="cls-3" d="M118.3,88.62c3,8.4,8.35,10.81,17.29,10.88q14.76.1,29.92-.43,9.8.2,20.33,0c28.94-.66,49.08,27.89,36.51,54.17a56,56,0,0,1-6.26,9.35q-42.92,54.9-86.12,109.5-6.64,3.12-9.35,3.12c-15.92,0-13.08-16.5-12.63-28.57q40.81-52.24,81.3-104c4.74-6.08-.49-10.33-6.51-10.36q-14.55-.06-29.12,0c-17.17.06-29.54-6.94-34.56-24.38Q117.71,103,118.3,88.62Z"/><path class="cls-4" d="M107.83,199.66,108,246.6c-.45,12.07-3.29,28.61,12.63,28.57q2.7,0,9.35-3.12C116.71,293.31,84.88,292,76.54,267.6q-1.71-5-1.74-16,0-19.57,0-39.16c0-12.46-1.74-19.55-13.38-24.17q14.94-.54,29.34-.44C100,187.84,105.06,190.79,107.83,199.66Z"/></svg>