<svg id="Layer_1" data-name="Layer 1" xmlns="http://www.w3.org/2000/svg" viewBox="0 0 226.16 287.02"><defs><style>.cls-1{fill:#54efa5;}</style></defs><path class="cls-1" d="M185.84,99.07q-10.53.2-20.33,0-9.48.34-18.81.42,9.33-.09,18.81-.42c-11.68-4.17-14.15-11.3-14.2-23.44V33.34q0-8.28-1.31-12.48C143.66.27,120.34-6.12,103.24,6.4q-2.46,1.78-7.53,9.39Q55.44,66.63,15,118.19C7.26,128,3,132.56.88,142.33c-4.26,19.53,7.32,38,26.45,43.65,10.52,3.09,22.69,1.34,34.07,2.25q14.94-.55,29.34-.44a22.49,22.49,0,0,1,9.05,1.57,22.66,22.66,0,0,0-9-1.53q-14.4-.11-29.34.44C73.06,192.89,74.8,200,74.8,212.44V251.6q0,11,1.74,16c8.33,24.38,40.12,25.71,53.41,4.5-5.91,2.61-7.67,3.43-11.62,3a5.4,5.4,0,0,1-.58-.08,2.63,2.63,0,0,1-.39-.06l-.51-.1-.15,0a10.39,10.39,0,0,1-4.84-2.4,3.11,3.11,0,0,0,.28.23c.12.1.24.2.37.29a10.29,10.29,0,0,0,3.41,1.65,12.33,12.33,0,0,0,1.77.38c4.41.62,6.06-.15,12.29-2.91l0,.05h0q43.2-54.6,86.12-109.5a55.88,55.88,0,0,0,6.26-9.35C234.92,127,214.78,98.41,185.84,99.07ZM118.36,35.85q0,1.11-.09,2.1C118.29,37.29,118.32,36.58,118.36,35.85Zm-2.2-18.92a16,16,0,0,0-1-1.34A12.55,12.55,0,0,1,116.16,16.93ZM99.8,189.36a11.85,11.85,0,0,1,2.68,1.61A13.15,13.15,0,0,0,99.8,189.36Zm9.07,78.48c0,.14.1.28.16.43a1.42,1.42,0,0,1-.08-.18C108.92,268,108.9,267.92,108.87,267.84Zm.45,1.13a1.8,1.8,0,0,1-.08-.21l.09.21Zm2.15,3.09a1.8,1.8,0,0,1-.35-.38,3.25,3.25,0,0,1-.26-.27l0-.05a3.27,3.27,0,0,1-.29-.39,3.07,3.07,0,0,1-.27-.36l0,0q-.15-.22-.27-.45a1.45,1.45,0,0,1-.17-.26l-.1-.17c-.12-.23-.25-.47-.36-.71l.13.23a10.92,10.92,0,0,0,.79,1.36l.27.38c.11.14.22.28.34.41l.25.3.08.08c.19.21.38.39.58.58A2,2,0,0,1,111.47,272.06Zm77.82-129.42q-40.48,51.77-81.29,104s-.18-47-.17-47c-.07-5.58.4-11.93-.36-16.86-2.87-18.83-16.28-28.14-34.71-28q-14.57.09-29.12,0c-6.82,0-11.49-4.21-6.49-10.61q40.32-51.86,81.06-103.8l.09,48.24q-.58,14.38.8,19.28c5,17.44,17.39,24.44,34.56,24.38q14.57-.06,29.12,0C188.8,132.31,194,136.56,189.29,142.64Z" transform="translate(0 0)"/><path class="cls-1" d="M115.17,15.59a12.55,12.55,0,0,1,1,1.34A16,16,0,0,0,115.17,15.59Z" transform="translate(0 0)"/><path class="cls-1" d="M118.27,38c0-.66,0-1.37.09-2.1Q118.32,37,118.27,38Z" transform="translate(0 0)"/><path class="cls-1" d="M118.42,24.47a91.7,91.7,0,0,1-.06,11.37A93.7,93.7,0,0,0,118.42,24.47Z" transform="translate(0 0)"/><path class="cls-1" d="M165.51,99.07q-9.48.34-18.81.42Q156,99.4,165.51,99.07Z" transform="translate(0 0)"/><path class="cls-1" d="M115.17,15.59a12.55,12.55,0,0,1,1,1.34A16,16,0,0,0,115.17,15.59Z" transform="translate(0 0)"/><path class="cls-1" d="M118.27,38c0-.66,0-1.37.09-2.1Q118.32,37,118.27,38Z" transform="translate(0 0)"/><path class="cls-1" d="M118.36,35.84a93.7,93.7,0,0,0,.06-11.37A91.7,91.7,0,0,1,118.36,35.84Z" transform="translate(0 0)"/><path class="cls-1" d="M120.63,275.17q2.7,0,9.35-3.12l0,.05c-4.42,2.07-7.52,3.11-9.33,3.11-8.38,0-11.57-4.58-12.63-10.68C109.07,270.62,112.25,275.19,120.63,275.17Z" transform="translate(0 0)"/><path class="cls-1" d="M165.51,99.07q-9.48.34-18.81.42Q156,99.4,165.51,99.07Z" transform="translate(0 0)"/><path class="cls-1" d="M130,272.05l0,.05c-4.42,2.07-7.52,3.11-9.33,3.11-8.38,0-11.57-4.58-12.63-10.68,1.08,6.09,4.26,10.66,12.64,10.64Q123.33,275.17,130,272.05Z" transform="translate(0 0)"/></svg>