<svg id="Layer_1" data-name="Layer 1" xmlns="http://www.w3.org/2000/svg" viewBox="0 0 447.65 500"><defs><style>.cls-1{fill:#54efa5;}.cls-2{fill:#1e3444;}.cls-3{fill:#fefefe;}</style></defs><path class="cls-1" d="M33.71,371.84c-2.65-4.46-5.14-9-6.28-14.11a45.2,45.2,0,0,1-1.25-9.86q0-98.91.06-197.82c.32-17.15,13.63-32.1,25.61-43.17,4.71-4.26,10.4-6.89,15.78-10C120.54,66.48,173.11,35.46,226.24,5.5c8.11-4,17.26-5.52,26.28-5.5a19.83,19.83,0,0,0,2.88.21c9.55.37,18.22,4.61,26.34,9.27,54.56,31.86,109.64,62.91,164,95,4.69,4.07,8.91,8.62,13.26,13a125.32,125.32,0,0,1,7.45,10.26,72.38,72.38,0,0,1,4.47,8.38,44.27,44.27,0,0,1,2.86,17q-.06,97.77,0,195.54c0,17.21-12,31.19-23.6,42.64-4,3.82-8.81,6.5-13.57,9.24Q361.79,443.75,287,487c-5.62,3.24-11.06,6.81-17.18,9.13a55.87,55.87,0,0,1-12.31,3.12,5.32,5.32,0,0,0-1.37.36c-1.6.62-3.28.38-4.93.41-3.85.15-7.61-.62-11.4-1.07-4.91-.18-9.24-2.49-13.65-4.36-49.68-28.33-99.06-57.2-148.64-85.7-7.06-4.07-14.14-8.11-21.16-12.23a35.29,35.29,0,0,1-6.57-5.37,119.71,119.71,0,0,1-9.87-10.39C37.65,378,35.17,375.2,33.71,371.84Z" transform="translate(-26.18)"/><path class="cls-2" d="M47,364.33c-2.49-4.18-4.82-8.42-5.89-13.23A42.31,42.31,0,0,1,40,341.85Q40,249,40,156.2c.3-16.09,12.79-30.12,24-40.51,4.42-4,9.76-6.46,14.81-9.39,49.65-28.52,99-57.63,148.84-85.75,7.62-3.76,16.2-5.18,24.66-5.16a18.32,18.32,0,0,0,2.76.21c8.94.35,17.06,4.32,24.67,8.69,51.19,29.9,102.89,59,153.94,89.15,4.4,3.82,8.36,8.09,12.44,12.23,2.53,3.07,4.78,6.33,7,9.63a68.22,68.22,0,0,1,4.19,7.87A41.63,41.63,0,0,1,460,159.11q0,91.74,0,183.49c0,16.15-11.22,29.27-22.14,40-3.8,3.58-8.27,6.1-12.74,8.67q-70.24,40.51-140.47,81.08c-5.28,3-10.38,6.39-16.13,8.57A53.05,53.05,0,0,1,257,483.87a4.64,4.64,0,0,0-1.28.33c-1.51.58-3.08.36-4.63.38-3.61.15-7.14-.57-10.7-1-4.61-.18-8.67-2.34-12.81-4.1-46.62-26.58-93-53.68-139.49-80.42-6.62-3.82-13.26-7.61-19.85-11.48a32.77,32.77,0,0,1-6.17-5,110.87,110.87,0,0,1-9.26-9.75C50.73,370.09,48.4,367.49,47,364.33Z" transform="translate(-26.18)"/><path class="cls-3" d="M200.17,317.85c-3,0-6-.05-9,0-1.2,0-1.48-.37-1.46-1.5.07-3.21,0-6.43.06-9.64,0-1.2-.22-1.65-1.55-1.87-8.31-1.36-16.26-3.83-23.46-8.34a23,23,0,0,1-4.36-3.57,1.22,1.22,0,0,1-.18-1.71q4.29-7.5,8.47-15.05c.45-.81.72-1,1.53-.31a40,40,0,0,0,21,9.59c5.36.75,10.71.88,15.94-.85,6.78-2.25,10-7.6,8.67-14.59-.83-4.49-4.07-6.66-8-8-4.68-1.59-9.58-2.24-14.38-3.32s-9.6-2.15-14.09-4.31a23.36,23.36,0,0,1-13.49-17.23,42.88,42.88,0,0,1,.69-21.05c3.26-10.92,11-17.22,21.66-20.18,1.3-.36,1.62-.88,1.59-2.13-.09-3.49,0-7,0-10.47,0-1,.23-1.36,1.29-1.35q9.06.08,18.11,0c1,0,1.35.26,1.33,1.3-.06,3.38,0,6.76-.05,10.13,0,1.16.3,1.6,1.48,1.84a56.68,56.68,0,0,1,21.39,9.49c.88.63,1.08,1.09.56,2.11q-3.81,7.38-7.43,14.85c-.62,1.28-1,1.18-2.08.42-6.05-4.52-12.67-7.68-20.35-8.15a25.72,25.72,0,0,0-11.27,1.52c-4.31,1.74-7,4.78-7.24,9.61s1.46,8.87,6.06,11.24a40,40,0,0,0,8.16,2.74c5.18,1.39,10.48,2.33,15.6,4,7.54,2.4,14.13,6.07,18,13.42a25.42,25.42,0,0,1,2.64,7.83c1,6.53,1.08,13.05-.87,19.42-3.27,10.62-10.84,16.77-21.19,19.88-3.41,1-3.42,1-3.42,4.49,0,2.77-.06,5.55,0,8.31,0,1.2-.37,1.49-1.5,1.46C206,317.8,203.1,317.85,200.17,317.85Z" transform="translate(-26.18)"/><path class="cls-1" d="M305.46,304.55c11.08,0,22.16,0,33.24,0,1.47,0,1.92.37,1.85,1.85-.12,2.76-.11,5.54,0,8.3.06,1.45-.32,1.88-1.82,1.87-11.91-.06-23.83,0-35.74,0-10.41,0-20.83,0-31.24,0-1.37,0-1.84-.34-1.79-1.75.11-2.83.1-5.66,0-8.48-.05-1.37.35-1.78,1.75-1.77C283,304.57,294.21,304.55,305.46,304.55Z" transform="translate(-26.18)"/></svg>